<?xml version="1.0" standalone="no"?>
<!DOCTYPE svg PUBLIC "-//W3C//DTD SVG 20010904//EN"
 "http://www.w3.org/TR/2001/REC-SVG-20010904/DTD/svg10.dtd">
<svg version="1.0" xmlns="http://www.w3.org/2000/svg"
 width="207.000000pt" height="207.000000pt" viewBox="0 0 207.000000 207.000000"
 preserveAspectRatio="xMidYMid meet">
<metadata>
Created by potrace 1.11, written by Peter Selinger 2001-2013
</metadata>
<g transform="translate(0.000000,207.000000) scale(0.100000,-0.100000)"
fill="#000000" stroke="none">
<path d="M851 2055 c-310 -68 -550 -256 -677 -530 -59 -128 -86 -256 -85 -402
1 -133 28 -260 79 -374 l29 -64 -46 -22 c-25 -13 -57 -31 -70 -42 l-24 -19 44
-52 c24 -29 58 -69 75 -89 17 -20 52 -65 79 -101 97 -131 151 -177 255 -218
69 -27 124 -36 225 -36 132 0 257 25 325 67 19 12 39 22 45 23 5 1 35 4 65 8
72 9 183 42 243 72 l48 23 -17 -22 c-34 -44 -125 -109 -192 -137 -66 -28 -91
-34 -206 -45 -53 -6 -84 -25 -71 -45 21 -34 150 -51 270 -35 226 29 383 121
536 312 30 37 92 114 137 171 l83 103 -23 19 c-13 11 -43 29 -68 42 -25 13
-47 24 -49 25 -2 2 8 30 23 63 57 126 81 248 79 405 -3 432 -320 807 -758 901
-64 13 -290 13 -354 -1z"/>
</g>
</svg>
