<svg id="Ebene_1" data-name="Ebene 1" xmlns="http://www.w3.org/2000/svg" viewBox="0 0 694.21 206.08"><defs><style>.cls-1{fill:#fbe8cb;}.cls-1,.cls-2,.cls-3,.cls-4,.cls-5,.cls-6{fill-rule:evenodd;}.cls-2{fill:#76b828;}.cls-3{fill:#74b94d;}.cls-4{fill:#00963f;}.cls-5{fill:#f38f39;}.cls-6{fill:#6f6f6e;}</style></defs><title>logo2</title><path class="cls-1" d="M596.78,187.6A93.8,93.8,0,1,0,503,93.8,94,94,0,0,0,596.78,187.6Z"/><path class="cls-2" d="M596.78,127a159.4,159.4,0,0,1-47.12,43.68c37.83-54.8,67.85-112.65-29-112.07,43.54-7.23,63.15-3.92,76.16,2.29,13-6.21,32.62-9.51,76.16-2.29-96.9-.58-66.88,57.27-29,112.07A159.4,159.4,0,0,1,596.78,127Z"/><path class="cls-3" d="M596.78,140.31c-2.66,14.8-5.54,29.82-8.2,44.63-1.49-32-1.69-64.46-3.45-94.89C583.81,66.91,550.58,50.21,524.41,34c22.62,3.69,52.06,14,72.38,32.57C617.1,48,646.54,37.66,669.16,34,643,50.21,609.76,66.91,608.43,90c-1.75,30.43-2,62.86-3.45,94.89C602.32,170.13,599.44,155.11,596.78,140.31Z"/><path class="cls-2" d="M596.78,54.67a11.44,11.44,0,1,0-11.44-11.44A11.47,11.47,0,0,0,596.78,54.67Z"/><path class="cls-4" d="M596.78,127q-4.7,6.55-9.75,12.32c-.41-14.3-.83-28.45-1.51-42.24.62-7.77-.79-14.72-4.89-20.5-4.92-8-13.38-15.2-23.16-22,11-.35,19.52.42,26.36,1.92a104.43,104.43,0,0,1,12.95,10,104.43,104.43,0,0,1,12.95-10c6.84-1.5,15.31-2.28,26.36-1.92-9.78,6.78-18.24,14-23.16,22-4.1,5.78-5.51,12.73-4.89,20.5-.69,13.79-1.11,27.94-1.51,42.24Q601.49,133.53,596.78,127Z"/><polygon class="cls-1" points="646.96 172.97 635.35 168.33 641.77 162.7 646.96 172.97"/><polygon class="cls-1" points="548.44 172.55 548.55 168.87 552.43 164.94 555.77 169.33 548.44 172.55"/><path class="cls-5" d="M513.26,162.46c-4.47-5.24-8.31-10.8-13.51-15.73,22-17.31,39.18-9,53.41,2.82A72.76,72.76,0,0,1,565.7,163c2.92,3.88,8,5.94,12.07,8.84,8.27,5.86-5.28,8.8-13.23,4.92-7.08-3.46-12.61-9.65-19.17-13.81,4.55,7.31,13.36,13.72,22,17.34,9,3.77,16.65,3.61,28,3.58,2.07,0,6.26-.39,7,1.54,2.85,7.21-25.84,10.79-29.91,11-13,.7-25.82-1.51-36.33-8.22C526.42,182.06,520.69,171.18,513.26,162.46Z"/><path class="cls-5" d="M617,173.23c4.15-4.2,11.53-7.53,14.71-12,4.66-6.57,8.85-12.58,15.72-16.8,7.58-4.65,15.9-8.14,24.78-7.69,8.12.41,16.72,5.7,22,10.24-14.38,15.33-24.61,34.62-41.59,46.36-12.77,8.83-28,12.18-44.46,12.74-5.1.17-16.23-1.7-16.8-4.8-.44-2.39,3.71-3.56,6.14-3.62,13.94-.35,26.61-4.33,37.09-14,6.8-6.25,11.54-14.86,14.08-21.1-5.55,3.76-10.69,8.46-16.9,12.65C623.79,180.61,612.92,177.34,617,173.23Z"/><path class="cls-6" d="M7,70.87V60.41H9.15c2.7,0,5.46.16,5.46,4.68,0,5.25-2.91,5.77-6,5.77Zm0,5.46H9.78c5.46,0,11.86-3,11.86-11.6C21.63,55,13.73,55,9.52,55H1.09C.21,55,0,55.11,0,56V89.48c0,.94.21,1.09,1.09,1.09H5.93c.88,0,1.09-.16,1.09-1.09V76.33Zm26.26-3.85c.68-.73,2.34-2.5,4-2.5a9.78,9.78,0,0,1,2.44.57c.21,0,.36-.31.42-.47l1.61-4.37a1.3,1.3,0,0,0,.1-.52c0-.68-1.51-1.2-3-1.2-3.54,0-5.46,2.91-6.45,4.11C32.08,66.34,31,64,30.42,64a3.35,3.35,0,0,0-.68.21l-4,1.61c-.26.1-.47.26-.47.47,0,1.2,1.35,2.13,1.35,7.85v15.7c0,.57.1.73.73.73h5.15c.62,0,.73-.16.73-.73V72.48ZM62.92,89.64c.26-.1.47-.26.47-.47,0-1-1.35-1.72-1.35-6.76v-10C62,67,59.59,64,53.09,64c-4,0-9.15,1.25-9.15,2.44a1.38,1.38,0,0,0,.16.62l1,3.17c.05.21.26.52.52.52.68,0,3.54-1.56,6.45-1.56,3.28,0,3.69,1.51,3.69,3.85v1.61c-4.11,0-13.57,0-13.57,8.79,0,4.89,3,8,7.8,8a8.65,8.65,0,0,0,6.76-3.12c.26,1.3,1,3.12,1.51,3.12a3.37,3.37,0,0,0,.68-.21l4-1.61Zm-7.12-5a5.66,5.66,0,0,1-3.9,2,3.39,3.39,0,0,1-3.43-3.54c0-4.58,6-4.16,7.33-4.16v5.72Zm25.48-7,7.07-10c.16-.26.42-.57.42-.73,0-.36-.1-.42-.68-.68l-4-1.51a8,8,0,0,0-.88-.26c-.26,0-.42.42-.78.94l-3,4.52c-.83,1.25-1.46,2-2.13,3.17-.68-1.14-1.09-2-1.82-3.17l-2.7-4.52c-.36-.52-.52-.94-.78-.94a8,8,0,0,0-.88.26l-4,1.51c-.57.26-.68.31-.68.68,0,.16.26.47.42.73l6.81,10-7.59,10.3c-.16.26-.42.57-.42.73,0,.36.1.47.68.68l4,1.51a3.32,3.32,0,0,0,.88.26c.21,0,.42-.42.78-.94l3.38-4.78c.62-.88,1.51-2.39,2-3.17.52.78,1.4,2.29,2,3.17l3.38,4.78c.36.52.57.94.78.94a3.32,3.32,0,0,0,.88-.26l4-1.51c.57-.26.68-.31.68-.68,0-.16-.26-.47-.42-.73L81.28,77.63Zm20.38-12c0-.57-.1-.73-.73-.73H91.05c-.62,0-.73.16-.73.73V69c0,.57.1.73.73.73h4V89.85c0,.57.1.73.73.73h5.15c.62,0,.73-.16.73-.73V65.61Zm.94-8.42a4.29,4.29,0,0,0-8.58,0,4.29,4.29,0,1,0,8.58,0Zm22.88,10a2.23,2.23,0,0,0,.26-.68c0-1.2-4.94-2.55-8.11-2.55-5.62,0-9.2,3.74-9.2,8.48a6.73,6.73,0,0,0,3.07,5.88c3.43,2.29,8.53,2.29,8.53,5.3,0,1.87-1.46,2.6-3.17,2.6-3.22,0-7.23-2.29-7.44-2.29s-.31.21-.42.47l-1.14,3a5.79,5.79,0,0,0-.26.68c0,1.4,5.93,3.38,9.78,3.38,5.51,0,8.89-3.59,8.89-8.37a7.24,7.24,0,0,0-3.48-6.34c-3.69-2.44-8.37-2.24-8.37-5,0-1.77,1.46-2.5,3.43-2.5a16,16,0,0,1,6,1.35.93.93,0,0,0,.42-.47l1.2-2.86Zm31.43,2.5h5c.52,0,.83-.05,1-.73l.73-3.07a1.84,1.84,0,0,0,.1-.52c0-.42-.42-.52-.88-.52H156.9V62.75c0-2.5.1-4.21,2.91-4.21,2,0,3.07.88,3.64.88.21,0,.42-.31.47-.52l.94-3.64a1.53,1.53,0,0,0,.1-.47c0-1-4-1.87-6.34-1.87-6.24,0-8.32,4.11-8.32,9.83v2.13h-3.69c-.88,0-1.09.16-1.09,1.09v2.65c0,.94.21,1.09,1.09,1.09h3.69V89.48c0,.94.21,1.09,1.09,1.09h4.42c.88,0,1.09-.16,1.09-1.09V69.72ZM188.57,90c.36-.1.57-.31.57-.57,0-1.2-1-.78-1-8.11V65.09c0-.88-.1-1.09-.36-1.09s-.73.16-.88.16l-4.37.88c-.62.16-1,.21-1,.94V84.39A8.2,8.2,0,0,1,177,86c-2.65,0-2.91-2.39-2.91-4.37V65.09c0-.88-.1-1.09-.42-1.09-.16,0-.68.16-.83.16l-4.37.88c-.62.16-1,.21-1,.94V83.87c0,6.29,3.9,7.59,6.76,7.59a11.39,11.39,0,0,0,8-3.07c.57,2.08,1,3.07,1.66,3.07a2.57,2.57,0,0,0,.78-.16l4-1.3ZM177,56.67a3.59,3.59,0,1,0-3.59,3.59A3.6,3.6,0,0,0,177,56.67Zm9.2,0a3.59,3.59,0,1,0-3.59,3.59,3.6,3.6,0,0,0,3.59-3.59Zm16,15.81c.68-.73,2.34-2.5,4-2.5a9.78,9.78,0,0,1,2.44.57c.21,0,.36-.31.42-.47l1.61-4.37a1.3,1.3,0,0,0,.1-.52c0-.68-1.51-1.2-3-1.2-3.54,0-5.46,2.91-6.45,4.11-.26-1.77-1.3-4.11-1.92-4.11a3.35,3.35,0,0,0-.68.21l-4,1.61c-.26.1-.47.26-.47.47,0,1.2,1.35,2.13,1.35,7.85v15.7c0,.57.1.73.73.73h5.15c.62,0,.73-.16.73-.73V72.48Zm53.11.31c0-12.58-4.94-18.72-12.95-18.72s-12.95,6.08-12.95,18.72,4.89,18.67,12.95,18.67,12.95-6.08,12.95-18.67ZM242.31,86c-3.9,0-5.56-5.1-5.56-13.21s1.66-13.26,5.56-13.26,5.56,5.1,5.56,13.26S246.21,86,242.31,86Zm35-18.77a2.23,2.23,0,0,0,.26-.68c0-1.2-4.94-2.55-8.11-2.55-5.62,0-9.2,3.74-9.2,8.48a6.73,6.73,0,0,0,3.07,5.88c3.43,2.29,8.53,2.29,8.53,5.3,0,1.87-1.46,2.6-3.17,2.6-3.22,0-7.23-2.29-7.44-2.29s-.31.21-.42.47l-1.14,3a5.79,5.79,0,0,0-.26.68c0,1.4,5.93,3.38,9.78,3.38,5.51,0,8.89-3.59,8.89-8.37a7.24,7.24,0,0,0-3.48-6.34c-3.69-2.44-8.37-2.24-8.37-5,0-1.77,1.46-2.5,3.43-2.5a16,16,0,0,1,6,1.35.93.93,0,0,0,.42-.47l1.2-2.86ZM297.9,84.8a.4.4,0,0,0-.42-.31c-.73,0-2,1-4.11,1-1.77,0-1.77-1.51-1.77-3.17V69.72h5.15c.62,0,.78-.05.94-.78l.68-3.07a1.47,1.47,0,0,0,.05-.42c0-.57-.42-.57-.88-.57H291.6V57.61c0-.62-.05-.88-.52-.88-.31,0-.52.05-.68.05l-4.58.62c-.73.1-.83.26-.83.94v6.55h-3.69c-.62,0-.73.16-.73.73V69c0,.57.1.73.73.73H285v11.7c0,4.78,0,10,6.71,10,3.54,0,7.33-1,7.33-2,0-.16-.05-.16-.1-.42l-1-4.26Zm22.88-.1a.69.69,0,0,0-.57-.42c-.73,0-2.86,1.72-6.6,1.72-4.89,0-5.72-3.59-5.72-6.5h14c1,0,1.2-.31,1.2-1.3,0-6.29-1.56-14.2-10.4-14.2-7,0-11.39,5.72-11.39,14,0,9.57,4.78,13.47,11.65,13.47,4.11,0,9.31-1.72,9.31-3.07a1,1,0,0,0-.16-.57l-1.3-3.12Zm-12.9-10c.16-1.46.36-5.82,4.42-5.82,3.59,0,3.74,3.69,3.74,5.82Zm30.73,11.6c-3.64,0-4.26-3.69-4.26-8.53s.68-8.53,4.26-8.53,4.26,3.69,4.26,8.53-.62,8.53-4.26,8.53Zm11.28-8.53c0-8.37-4.32-13.73-11.28-13.73s-11.28,5.36-11.28,13.73,4.26,13.73,11.28,13.73S349.9,86.1,349.9,77.73Zm12.79-6.55a5.81,5.81,0,0,1,4.16-2c3.22,0,4.21,3,4.21,8.32,0,6.14-.94,8.74-4.58,8.74a6.54,6.54,0,0,1-3.8-1V71.18Zm0,18.93a9.8,9.8,0,0,0,5.41,1.35c6.76,0,9.57-5.1,9.57-14.2,0-8.74-3.22-13.26-9-13.26a9.16,9.16,0,0,0-6.66,2.7c-.57-1.72-.94-2.7-1.61-2.7a2.57,2.57,0,0,0-.78.16l-4,1.3c-.36.1-.57.31-.57.57,0,1.2,1,.78,1,8.11v26.36c0,.88.1,1.09.36,1.09a3.87,3.87,0,0,0,.88-.16l4.37-.88c.62-.1,1-.21,1-.94V90.11Zm39.88-.47c.26-.1.47-.26.47-.47,0-1-1.35-1.72-1.35-6.76v-10c0-5.41-2.44-8.37-8.94-8.37-4,0-9.15,1.25-9.15,2.44a1.38,1.38,0,0,0,.16.62l1,3.17c.05.21.26.52.52.52.68,0,3.54-1.56,6.45-1.56,3.28,0,3.69,1.51,3.69,3.85v1.61c-4.11,0-13.57,0-13.57,8.79,0,4.89,3,8,7.8,8a8.65,8.65,0,0,0,6.76-3.12c.26,1.3,1,3.12,1.51,3.12a3.37,3.37,0,0,0,.68-.21l4-1.61Zm-7.12-5a5.66,5.66,0,0,1-3.9,2,3.39,3.39,0,0,1-3.43-3.54c0-4.58,6-4.16,7.33-4.16v5.72Zm27.61.16a.4.4,0,0,0-.42-.31c-.73,0-2,1-4.11,1-1.77,0-1.77-1.51-1.77-3.17V69.72h5.15c.62,0,.78-.05.94-.78l.68-3.07a1.47,1.47,0,0,0,.05-.42c0-.57-.42-.57-.88-.57h-5.93V57.61c0-.62-.05-.88-.52-.88-.31,0-.52.05-.68.05L411,57.4c-.73.1-.83.26-.83.94v6.55h-3.69c-.62,0-.73.16-.73.73V69c0,.57.1.73.73.73h3.69v11.7c0,4.78,0,10,6.71,10,3.54,0,7.33-1,7.33-2,0-.16-.05-.16-.1-.42l-1-4.26Zm25.53-12.58c0-4.52-1.25-8.22-6.76-8.22a10.52,10.52,0,0,0-7.18,3V54c0-.88-.1-1.09-.52-1.09-.1,0-.57.16-.73.16L429,54c-.62.16-1,.16-1,.94V89.85c0,.57.1.73.73.73h5.15c.62,0,.73-.16.73-.73V71.65a6.67,6.67,0,0,1,4.42-2.18c2.65,0,2.91,2.39,2.91,4.37v16c0,.57.1.73.73.73h5.15c.62,0,.73-.16.73-.73V72.22Zm15.81-6.6c0-.57-.1-.73-.73-.73h-9.88c-.62,0-.73.16-.73.73V69c0,.57.1.73.73.73h4V89.85c0,.57.1.73.73.73h5.15c.62,0,.73-.16.73-.73V65.61Zm.94-8.42a4.29,4.29,0,0,0-8.58,0,4.29,4.29,0,1,0,8.58,0ZM490.24,84.7a.69.69,0,0,0-.57-.42c-.73,0-2.86,1.72-6.6,1.72-4.89,0-5.72-3.59-5.72-6.5h14c1,0,1.2-.31,1.2-1.3,0-6.29-1.56-14.2-10.4-14.2-7,0-11.39,5.72-11.39,14,0,9.57,4.78,13.47,11.65,13.47,4.11,0,9.31-1.72,9.31-3.07a1,1,0,0,0-.16-.57l-1.3-3.12Zm-12.9-10c.16-1.46.36-5.82,4.42-5.82,3.59,0,3.74,3.69,3.74,5.82Zm-441.24,29c-.13-1.78-.26-2.11-1.39-2.11H28.39c-1.19,0-1.25.13-1.58,1.06l-5.61,16.63a38.69,38.69,0,0,0-2.11,7.92h-.13a51.46,51.46,0,0,0-2-7.92l-5.35-16.63c-.33-1-.4-1.06-1.45-1.06H3.84c-1.12,0-1.39.2-1.39,1.39L.6,145.36c-.07,1.19.26,1.39,1.39,1.39H6.81c1.12,0,1.32-.2,1.39-1.39L8.85,123c.07-2.38.13-8.18.13-10.56h.13c.4,2.38,1.58,8,2.31,10.36l3.83,12.87c.26.92.33,1.12,1.45,1.12H20.8c1.12,0,1.19-.2,1.45-1.12l4-12.87c.73-2.38,1.91-8,2.31-10.36h.13c0,2.38.07,8.18.13,10.56l.53,22.37c0,1.19.26,1.39,1.39,1.39h5.81c1.12,0,1.39-.2,1.39-1.39l-1.85-41.71Zm35,41.91c.33-.13.59-.33.59-.59,0-1.32-1.72-2.18-1.72-8.58V123.65c0-6.86-3.1-10.63-11.35-10.63C53.53,113,47,114.6,47,116.12a1.75,1.75,0,0,0,.2.79l1.32,4c.07.26.33.66.66.66.86,0,4.49-2,8.18-2,4.16,0,4.69,1.91,4.69,4.88v2c-5.21,0-17.23,0-17.23,11.15,0,6.2,3.83,10.16,9.9,10.16a11,11,0,0,0,8.58-4c.33,1.65,1.32,4,1.91,4a4.26,4.26,0,0,0,.86-.26l5-2Zm-9-6.34a7.19,7.19,0,0,1-5,2.51,4.3,4.3,0,0,1-4.36-4.49c0-5.81,7.66-5.28,9.31-5.28v7.26Zm29.83.86a.5.5,0,0,0-.53-.4,10.51,10.51,0,0,1-2.57.59c-1.85,0-1.85-1.85-1.85-4v-36c0-1.12-.13-1.39-.66-1.39-.13,0-.73.2-.92.2l-5.54,1.12c-.79.2-1.25.2-1.25,1.19v33.66c0,6.07,0,12.74,8.12,12.74,3.17,0,6.67-.92,6.67-1.85,0-.2-.07-.2-.13-.53l-1.32-5.41Zm24.75-.66a.5.5,0,0,0-.53-.4c-.92,0-2.57,1.25-5.21,1.25-2.24,0-2.24-1.91-2.24-4v-16h6.53c.79,0,1-.07,1.19-1l.86-3.89a1.85,1.85,0,0,0,.07-.53c0-.73-.53-.73-1.12-.73h-7.52V104.9c0-.79-.07-1.12-.66-1.12-.4,0-.66.07-.86.07l-5.81.79c-.92.13-1.06.33-1.06,1.19v8.32H95.58c-.79,0-.92.2-.92.92v4.29c0,.73.13.92.92.92h4.69v14.85c0,6.07,0,12.74,8.51,12.74,4.49,0,9.31-1.25,9.31-2.51,0-.2-.07-.2-.13-.53l-1.32-5.41Zm29-.13a.88.88,0,0,0-.73-.53c-.92,0-3.63,2.18-8.38,2.18-6.2,0-7.26-4.55-7.26-8.25h17.75c1.25,0,1.52-.4,1.52-1.65,0-8-2-18-13.2-18-8.84,0-14.45,7.26-14.45,17.75,0,12.14,6.07,17.09,14.78,17.09,5.21,0,11.81-2.18,11.81-3.89a1.33,1.33,0,0,0-.2-.73l-1.65-4ZM129.3,126.55c.2-1.85.46-7.39,5.61-7.39,4.55,0,4.75,4.69,4.75,7.39Zm70.29-21.12a2.32,2.32,0,0,0,.33-1c0-1.12-6.47-4-12.74-4-7.66,0-14.52,4-14.52,13.46,0,5.48,2.24,8.12,5.74,10.23,6.73,4.09,13.46,4.69,13.46,10.56,0,4.09-2.24,6.07-5.94,6.07-5.68,0-10.56-2.9-11-2.9a.9.9,0,0,0-.73.66l-1.52,4.36a6,6,0,0,0-.33,1.06c0,1.06,7.06,4,13.79,4,8.32,0,14.26-5.54,14.26-13.93a13.13,13.13,0,0,0-5.68-11c-5.81-4.29-13.53-5.21-13.53-10.23,0-4,3.17-5.15,6.2-5.15,4.75,0,8.84,2.9,9.24,2.9s.53-.26.73-.66l2.18-4.36Zm20,35.84c-4.62,0-5.41-4.69-5.41-10.82s.86-10.82,5.41-10.82,5.41,4.69,5.41,10.82-.79,10.82-5.41,10.82Zm14.32-10.82c0-10.63-5.48-17.42-14.32-17.42s-14.32,6.8-14.32,17.42,5.41,17.42,14.32,17.42,14.32-6.8,14.32-17.42Zm33.66-7.79c0-8-4.95-9.64-8.58-9.64-5.21,0-8.18,2.84-10.1,4.55-.73-3.1-1.25-4.55-2.11-4.55a3.26,3.26,0,0,0-1,.2l-5,1.65c-.46.13-.73.4-.73.73,0,1.52,1.25,1,1.25,10.3v19.93c0,.73.13.92.92.92h6.53c.79,0,.92-.2.92-.92V122.66c.86-.79,3-2.71,5.81-2.71,3.37,0,3.7,3,3.7,5.54v20.33c0,.73.13.92.92.92h6.53c.79,0,.92-.2.92-.92V122.66Zm35.44,0c0-8-4.95-9.64-8.58-9.64-5.21,0-8.18,2.84-10.1,4.55-.73-3.1-1.25-4.55-2.11-4.55a3.26,3.26,0,0,0-1,.2l-5,1.65c-.46.13-.73.4-.73.73,0,1.52,1.25,1,1.25,10.3v19.93c0,.73.13.92.92.92h6.53c.79,0,.92-.2.92-.92V122.66c.86-.79,3-2.71,5.81-2.71,3.37,0,3.7,3,3.7,5.54v20.33c0,.73.13.92.92.92h6.53c.79,0,.92-.2.92-.92V122.66Zm32.08,16.63a.88.88,0,0,0-.73-.53c-.92,0-3.63,2.18-8.38,2.18-6.2,0-7.26-4.55-7.26-8.25h17.75c1.25,0,1.52-.4,1.52-1.65,0-8-2-18-13.2-18-8.84,0-14.45,7.26-14.45,17.75,0,12.14,6.07,17.09,14.78,17.09,5.21,0,11.81-2.18,11.81-3.89a1.33,1.33,0,0,0-.2-.73l-1.65-4Zm-16.37-12.74c.2-1.85.46-7.39,5.61-7.39,4.55,0,4.75,4.69,4.75,7.39Zm69-3.1c0-5.74-1.45-10.43-7.66-10.43-5.41,0-8.25,2.84-10.23,4.55-.79-2.77-3.89-4.55-6.73-4.55-5.21,0-8.12,2.84-10.1,4.55-.73-3.1-1.25-4.55-2.11-4.55a3.26,3.26,0,0,0-1,.2l-5,1.65c-.46.13-.73.4-.73.73,0,1.52,1.25,1,1.25,10.3v19.93c0,.73.13.92.92.92h6.53c.79,0,.92-.2.92-.92V122.66c.86-.79,3-2.71,5.81-2.71,2.51,0,2.77,3,2.77,5.54v20.33c0,.73.13.92.92.92h6.53c.79,0,.92-.2.92-.92V122.66c.86-.79,3-2.71,5.81-2.71,2.51,0,2.77,3,2.77,5.54v20.33c0,.73.13.92.92.92h6.53c.79,0,.92-.2.92-.92V123.45Zm32.87,22.11c.33-.13.59-.33.59-.59,0-1.32-1.72-2.18-1.72-8.58V123.65c0-6.86-3.1-10.63-11.35-10.63-5.08,0-11.62,1.58-11.62,3.1a1.75,1.75,0,0,0,.2.79l1.32,4c.07.26.33.66.66.66.86,0,4.49-2,8.18-2,4.16,0,4.69,1.91,4.69,4.88v2c-5.21,0-17.23,0-17.23,11.15,0,6.2,3.83,10.16,9.9,10.16a11,11,0,0,0,8.58-4c.33,1.65,1.32,4,1.91,4a4.26,4.26,0,0,0,.86-.26l5-2Zm-9-6.34a7.19,7.19,0,0,1-5,2.51,4.3,4.3,0,0,1-4.36-4.49c0-5.81,7.66-5.28,9.31-5.28v7.26Zm43-16.57c0-8-4.95-9.64-8.58-9.64-5.21,0-8.18,2.84-10.1,4.55-.73-3.1-1.25-4.55-2.11-4.55a3.26,3.26,0,0,0-1,.2l-5,1.65c-.46.13-.73.4-.73.73,0,1.52,1.25,1,1.25,10.3v19.93c0,.73.13.92.92.92h6.53c.79,0,.92-.2.92-.92V122.66c.86-.79,3-2.71,5.81-2.71,3.37,0,3.7,3,3.7,5.54v20.33c0,.73.13.92.92.92h6.53c.79,0,.92-.2.92-.92V122.66Zm35.44,0c0-8-4.95-9.64-8.58-9.64-5.21,0-8.18,2.84-10.1,4.55-.73-3.1-1.25-4.55-2.11-4.55a3.26,3.26,0,0,0-1,.2l-5,1.65c-.46.13-.73.4-.73.73,0,1.52,1.25,1,1.25,10.3v19.93c0,.73.13.92.92.92h6.53c.79,0,.92-.2.92-.92V122.66c.86-.79,3-2.71,5.81-2.71,3.37,0,3.7,3,3.7,5.54v20.33c0,.73.13.92.92.92h6.53c.79,0,.92-.2.92-.92Z"/></svg>