<?xml version="1.0" encoding="utf-8"?>
<!-- Generator: Adobe Illustrator 21.1.0, SVG Export Plug-In . SVG Version: 6.00 Build 0)  -->
<svg version="1.1" id="Ebene_1" xmlns="http://www.w3.org/2000/svg" xmlns:xlink="http://www.w3.org/1999/xlink" x="0px" y="0px"
	 viewBox="0 0 694.2 206.1" style="enable-background:new 0 0 694.2 206.1;" xml:space="preserve">
<style type="text/css">
	.st0{fill:#FBE8CB;}
	.st1{fill:#76B828;}
	.st2{fill:#74B94D;}
	.st3{fill:#00963F;}
	.st4{fill:#F38F39;}
	.st5{fill:#FFFFFF;}
</style>
<title>logo2</title>
<path class="st0" d="M596.8,187.6c51.8,0,93.8-42,93.8-93.8c0-51.8-42-93.8-93.8-93.8C545,0,503,42,503,93.8c0,0,0,0,0,0
	C503.1,145.6,545,187.5,596.8,187.6z"/>
<path class="st1" d="M596.8,127c-12.6,17.6-28.6,32.5-47.1,43.7c37.8-54.8,67.8-112.6-29-112.1c43.5-7.2,63.2-3.9,76.2,2.3
	c13-6.2,32.6-9.5,76.2-2.3c-96.9-0.6-66.9,57.3-29,112.1C625.4,159.5,609.4,144.6,596.8,127z"/>
<path class="st2" d="M596.8,140.3c-2.7,14.8-5.5,29.8-8.2,44.6c-1.5-32-1.7-64.5-3.5-94.9c-1.3-23.1-34.5-39.8-60.7-56.1
	c22.6,3.7,52.1,14,72.4,32.6C617.1,48,646.5,37.7,669.2,34c-26.2,16.2-59.4,32.9-60.7,56c-1.8,30.4-2,62.9-3.5,94.9
	C602.3,170.1,599.4,155.1,596.8,140.3z"/>
<path class="st1" d="M596.8,54.7c6.3,0,11.4-5.1,11.4-11.4s-5.1-11.4-11.4-11.4s-11.4,5.1-11.4,11.4
	C585.4,49.5,590.5,54.7,596.8,54.7z"/>
<path class="st3" d="M596.8,127c-3.1,4.4-6.4,8.5-9.8,12.3c-0.4-14.3-0.8-28.4-1.5-42.2c0.6-7.8-0.8-14.7-4.9-20.5
	c-4.9-8-13.4-15.2-23.2-22c11-0.3,19.5,0.4,26.4,1.9c4.6,3,8.9,6.3,13,10c4-3.7,8.4-7,13-10c6.8-1.5,15.3-2.3,26.4-1.9
	c-9.8,6.8-18.2,14-23.2,22c-4.1,5.8-5.5,12.7-4.9,20.5c-0.7,13.8-1.1,27.9-1.5,42.2C603.2,135.5,599.9,131.4,596.8,127z"/>
<polygon class="st0" points="647,173 635.3,168.3 641.8,162.7 "/>
<polygon class="st0" points="548.4,172.5 548.5,168.9 552.4,164.9 555.8,169.3 "/>
<path class="st4" d="M513.3,162.5c-4.5-5.2-8.3-10.8-13.5-15.7c22-17.3,39.2-9,53.4,2.8c4.7,3.9,8.9,8.5,12.5,13.4
	c2.9,3.9,8,5.9,12.1,8.8c8.3,5.9-5.3,8.8-13.2,4.9c-7.1-3.5-12.6-9.6-19.2-13.8c4.5,7.3,13.4,13.7,22,17.3c9,3.8,16.7,3.6,28,3.6
	c2.1,0,6.3-0.4,7,1.5c2.8,7.2-25.8,10.8-29.9,11c-13,0.7-25.8-1.5-36.3-8.2C526.4,182.1,520.7,171.2,513.3,162.5z"/>
<path class="st4" d="M617,173.2c4.2-4.2,11.5-7.5,14.7-12c4.7-6.6,8.8-12.6,15.7-16.8c7.6-4.6,15.9-8.1,24.8-7.7
	c8.1,0.4,16.7,5.7,22,10.2c-14.4,15.3-24.6,34.6-41.6,46.4c-12.8,8.8-28,12.2-44.5,12.7c-5.1,0.2-16.2-1.7-16.8-4.8
	c-0.4-2.4,3.7-3.6,6.1-3.6c13.9-0.4,26.6-4.3,37.1-14c6.8-6.2,11.5-14.9,14.1-21.1c-5.5,3.8-10.7,8.5-16.9,12.6
	C623.8,180.6,612.9,177.3,617,173.2z"/>
<path class="st5" d="M7,70.9V60.4h2.1c2.7,0,5.5,0.2,5.5,4.7c0,5.2-2.9,5.8-6,5.8L7,70.9z M7,76.3h2.8c5.5,0,11.9-3,11.9-11.6
	c0-9.7-7.9-9.7-12.1-9.7H1.1C0.2,55,0,55.1,0,56v33.5c0,0.9,0.2,1.1,1.1,1.1h4.8c0.9,0,1.1-0.2,1.1-1.1L7,76.3L7,76.3z M33.3,72.5
	c0.7-0.7,2.3-2.5,4-2.5c0.8,0.1,1.7,0.3,2.4,0.6c0.2,0,0.4-0.3,0.4-0.5l1.6-4.4c0.1-0.2,0.1-0.3,0.1-0.5c0-0.7-1.5-1.2-3-1.2
	c-3.5,0-5.5,2.9-6.5,4.1c-0.3-1.8-1.4-4.1-2-4.1c-0.2,0-0.5,0.1-0.7,0.2l-4,1.6c-0.3,0.1-0.5,0.3-0.5,0.5c0,1.2,1.4,2.1,1.4,7.8
	v15.7c0,0.6,0.1,0.7,0.7,0.7h5.1c0.6,0,0.7-0.2,0.7-0.7L33.3,72.5L33.3,72.5z M62.9,89.6c0.3-0.1,0.5-0.3,0.5-0.5
	c0-1-1.3-1.7-1.3-6.8v-10c0-5.4-2.5-8.4-9-8.4c-4,0-9.1,1.2-9.1,2.4c0,0.2,0.1,0.4,0.2,0.6l1,3.2c0,0.2,0.3,0.5,0.5,0.5
	c0.7,0,3.5-1.6,6.5-1.6c3.3,0,3.7,1.5,3.7,3.8v1.6c-4.1,0-13.6,0-13.6,8.8c0,4.9,3,8,7.8,8c2.6,0,5.1-1.1,6.8-3.1
	c0.3,1.3,1,3.1,1.5,3.1c0.2,0,0.5-0.1,0.7-0.2L62.9,89.6L62.9,89.6z M55.8,84.6c-1,1.2-2.4,1.9-3.9,2c-1.9,0-3.4-1.5-3.4-3.3
	c0-0.1,0-0.1,0-0.2c0-4.6,6-4.2,7.3-4.2L55.8,84.6L55.8,84.6z M81.3,77.6l7.1-10c0.2-0.3,0.4-0.6,0.4-0.7c0-0.4-0.1-0.4-0.7-0.7
	l-4-1.5c-0.3-0.1-0.6-0.2-0.9-0.3c-0.3,0-0.4,0.4-0.8,0.9l-3,4.5c-0.8,1.2-1.5,2-2.1,3.2c-0.7-1.1-1.1-2-1.8-3.2l-2.7-4.5
	c-0.4-0.5-0.5-0.9-0.8-0.9c-0.3,0.1-0.6,0.2-0.9,0.3l-4,1.5c-0.6,0.3-0.7,0.3-0.7,0.7c0,0.2,0.3,0.5,0.4,0.7l6.8,10l-7.6,10.3
	c-0.2,0.3-0.4,0.6-0.4,0.7c0,0.4,0.1,0.5,0.7,0.7l4,1.5c0.3,0.1,0.6,0.2,0.9,0.3c0.2,0,0.4-0.4,0.8-0.9l3.4-4.8
	c0.6-0.9,1.5-2.4,2-3.2c0.5,0.8,1.4,2.3,2,3.2l3.4,4.8c0.4,0.5,0.6,0.9,0.8,0.9c0.3,0,0.6-0.1,0.9-0.3l4-1.5
	c0.6-0.3,0.7-0.3,0.7-0.7c0-0.2-0.3-0.5-0.4-0.7L81.3,77.6L81.3,77.6z M101.7,65.6c0-0.6-0.1-0.7-0.7-0.7h-9.9
	c-0.6,0-0.7,0.2-0.7,0.7V69c0,0.6,0.1,0.7,0.7,0.7h4v20.1c0,0.6,0.1,0.7,0.7,0.7h5.2c0.6,0,0.7-0.2,0.7-0.7L101.7,65.6L101.7,65.6z
	 M102.6,57.2c0-2.4-1.9-4.3-4.3-4.3S94,54.9,94,57.2s1.9,4.3,4.3,4.3S102.6,59.6,102.6,57.2z M125.5,67.2c0.1-0.2,0.2-0.4,0.3-0.7
	c0-1.2-4.9-2.5-8.1-2.5c-5.6,0-9.2,3.7-9.2,8.5c-0.1,2.4,1.1,4.6,3.1,5.9c3.4,2.3,8.5,2.3,8.5,5.3c0,1.9-1.5,2.6-3.2,2.6
	c-3.2,0-7.2-2.3-7.4-2.3s-0.3,0.2-0.4,0.5l-1.1,3c-0.1,0.2-0.2,0.4-0.3,0.7c0,1.4,5.9,3.4,9.8,3.4c5.5,0,8.9-3.6,8.9-8.4
	c0.1-2.6-1.3-5-3.5-6.3c-3.7-2.4-8.4-2.2-8.4-5c0-1.8,1.5-2.5,3.4-2.5c2.1,0.1,4.1,0.5,6,1.3c0.2-0.1,0.3-0.3,0.4-0.5L125.5,67.2
	L125.5,67.2z M156.9,69.7h5c0.5,0,0.8-0.1,1-0.7l0.7-3.1c0.1-0.2,0.1-0.3,0.1-0.5c0-0.4-0.4-0.5-0.9-0.5h-6v-2.1
	c0-2.5,0.1-4.2,2.9-4.2c2,0,3.1,0.9,3.6,0.9c0.2,0,0.4-0.3,0.5-0.5l0.9-3.6c0.1-0.2,0.1-0.3,0.1-0.5c0-1-4-1.9-6.3-1.9
	c-6.2,0-8.3,4.1-8.3,9.8v2.1h-3.7c-0.9,0-1.1,0.2-1.1,1.1v2.7c0,0.9,0.2,1.1,1.1,1.1h3.7v19.8c0,0.9,0.2,1.1,1.1,1.1h4.4
	c0.9,0,1.1-0.2,1.1-1.1L156.9,69.7L156.9,69.7z M188.6,90c0.4-0.1,0.6-0.3,0.6-0.6c0-1.2-1-0.8-1-8.1V65.1c0-0.9-0.1-1.1-0.4-1.1
	s-0.7,0.2-0.9,0.2l-4.4,0.9c-0.6,0.2-1,0.2-1,0.9v18.4c-1.3,1-2.9,1.5-4.5,1.6c-2.6,0-2.9-2.4-2.9-4.4V65.1c0-0.9-0.1-1.1-0.4-1.1
	c-0.2,0-0.7,0.2-0.8,0.2l-4.4,0.9c-0.6,0.2-1,0.2-1,0.9v17.9c0,6.3,3.9,7.6,6.8,7.6c3,0.1,5.8-1,8-3.1c0.6,2.1,1,3.1,1.7,3.1
	c0.3,0,0.5-0.1,0.8-0.2L188.6,90L188.6,90z M177,56.7c0-2-1.6-3.6-3.6-3.6c-2,0-3.6,1.6-3.6,3.6c0,2,1.6,3.6,3.6,3.6l0,0
	C175.4,60.3,177,58.7,177,56.7z M186.2,56.7c0-2-1.6-3.6-3.6-3.6c-2,0-3.6,1.6-3.6,3.6c0,2,1.6,3.6,3.6,3.6l0,0
	C184.6,60.3,186.2,58.7,186.2,56.7z M202.2,72.5c0.7-0.7,2.3-2.5,4-2.5c0.8,0.1,1.7,0.3,2.4,0.6c0.2,0,0.4-0.3,0.4-0.5l1.6-4.4
	c0.1-0.2,0.1-0.3,0.1-0.5c0-0.7-1.5-1.2-3-1.2c-3.5,0-5.5,2.9-6.4,4.1c-0.3-1.8-1.3-4.1-1.9-4.1c-0.2,0-0.5,0.1-0.7,0.2l-4,1.6
	c-0.3,0.1-0.5,0.3-0.5,0.5c0,1.2,1.4,2.1,1.4,7.8v15.7c0,0.6,0.1,0.7,0.7,0.7h5.1c0.6,0,0.7-0.2,0.7-0.7L202.2,72.5L202.2,72.5z
	 M255.3,72.8c0-12.6-4.9-18.7-12.9-18.7s-12.9,6.1-12.9,18.7s4.9,18.7,12.9,18.7S255.3,85.4,255.3,72.8z M242.3,86
	c-3.9,0-5.6-5.1-5.6-13.2s1.7-13.3,5.6-13.3s5.6,5.1,5.6,13.3S246.2,86,242.3,86z M277.3,67.2c0.1-0.2,0.2-0.4,0.3-0.7
	c0-1.2-4.9-2.5-8.1-2.5c-5.6,0-9.2,3.7-9.2,8.5c-0.1,2.4,1.1,4.6,3.1,5.9c3.4,2.3,8.5,2.3,8.5,5.3c0,1.9-1.5,2.6-3.2,2.6
	c-3.2,0-7.2-2.3-7.4-2.3s-0.3,0.2-0.4,0.5l-1.1,3c-0.1,0.2-0.2,0.4-0.3,0.7c0,1.4,5.9,3.4,9.8,3.4c5.5,0,8.9-3.6,8.9-8.4
	c0.1-2.6-1.3-5-3.5-6.3c-3.7-2.4-8.4-2.2-8.4-5c0-1.8,1.5-2.5,3.4-2.5c2.1,0.1,4.1,0.5,6,1.3c0.2-0.1,0.3-0.3,0.4-0.5L277.3,67.2
	L277.3,67.2z M297.9,84.8c0-0.2-0.2-0.3-0.4-0.3c-0.7,0-2,1-4.1,1c-1.8,0-1.8-1.5-1.8-3.2V69.7h5.1c0.6,0,0.8-0.1,0.9-0.8l0.7-3.1
	c0-0.1,0.1-0.3,0-0.4c0-0.6-0.4-0.6-0.9-0.6h-5.9v-7.3c0-0.6,0-0.9-0.5-0.9c-0.3,0-0.5,0-0.7,0l-4.6,0.6c-0.7,0.1-0.8,0.3-0.8,0.9
	v6.6h-3.7c-0.6,0-0.7,0.2-0.7,0.7V69c0,0.6,0.1,0.7,0.7,0.7h3.7v11.7c0,4.8,0,10,6.7,10c3.5,0,7.3-1,7.3-2c0-0.2,0-0.2-0.1-0.4
	L297.9,84.8L297.9,84.8z M320.8,84.7c-0.1-0.2-0.3-0.4-0.6-0.4c-0.7,0-2.9,1.7-6.6,1.7c-4.9,0-5.7-3.6-5.7-6.5h14
	c1,0,1.2-0.3,1.2-1.3c0-6.3-1.6-14.2-10.4-14.2c-7,0-11.4,5.7-11.4,14c0,9.6,4.8,13.5,11.6,13.5c4.1,0,9.3-1.7,9.3-3.1
	c0-0.2-0.1-0.4-0.2-0.6L320.8,84.7L320.8,84.7z M307.9,74.7c0.2-1.5,0.4-5.8,4.4-5.8c3.6,0,3.7,3.7,3.7,5.8H307.9z M338.6,86.3
	c-3.6,0-4.3-3.7-4.3-8.5s0.7-8.5,4.3-8.5s4.3,3.7,4.3,8.5S342.3,86.3,338.6,86.3z M349.9,77.8c0-8.4-4.3-13.7-11.3-13.7
	s-11.3,5.4-11.3,13.7s4.3,13.7,11.3,13.7S349.9,86.1,349.9,77.8L349.9,77.8z M362.7,71.2c1.1-1.2,2.6-1.9,4.2-2c3.2,0,4.2,3,4.2,8.3
	c0,6.1-0.9,8.7-4.6,8.7c-1.3,0.1-2.7-0.3-3.8-1L362.7,71.2L362.7,71.2z M362.7,90.1c1.6,1,3.5,1.4,5.4,1.3c6.8,0,9.6-5.1,9.6-14.2
	c0-8.7-3.2-13.3-9-13.3c-2.5,0-4.9,0.9-6.7,2.7c-0.6-1.7-0.9-2.7-1.6-2.7c-0.3,0-0.5,0.1-0.8,0.2l-4,1.3c-0.4,0.1-0.6,0.3-0.6,0.6
	c0,1.2,1,0.8,1,8.1v26.4c0,0.9,0.1,1.1,0.4,1.1c0.3,0,0.6-0.1,0.9-0.2l4.4-0.9c0.6-0.1,1-0.2,1-0.9L362.7,90.1L362.7,90.1z
	 M402.6,89.7c0.3-0.1,0.5-0.3,0.5-0.5c0-1-1.4-1.7-1.4-6.8v-10c0-5.4-2.4-8.4-8.9-8.4c-4,0-9.1,1.2-9.1,2.4c0,0.2,0.1,0.4,0.2,0.6
	l1,3.2c0,0.2,0.3,0.5,0.5,0.5c0.7,0,3.5-1.6,6.5-1.6c3.3,0,3.7,1.5,3.7,3.8v1.6c-4.1,0-13.6,0-13.6,8.8c0,4.9,3,8,7.8,8
	c2.6,0,5.1-1.1,6.8-3.1c0.3,1.3,1,3.1,1.5,3.1c0.2,0,0.5-0.1,0.7-0.2L402.6,89.7L402.6,89.7z M395.4,84.7c-1,1.2-2.4,1.9-3.9,2
	c-1.9,0-3.4-1.5-3.4-3.3c0-0.1,0-0.1,0-0.2c0-4.6,6-4.2,7.3-4.2V84.7L395.4,84.7z M423.1,84.8c0-0.2-0.2-0.3-0.4-0.3
	c-0.7,0-2,1-4.1,1c-1.8,0-1.8-1.5-1.8-3.2V69.7h5.1c0.6,0,0.8-0.1,0.9-0.8l0.7-3.1c0-0.1,0.1-0.3,0-0.4c0-0.6-0.4-0.6-0.9-0.6h-5.9
	v-7.3c0-0.6,0-0.9-0.5-0.9c-0.3,0-0.5,0-0.7,0l-4.6,0.6c-0.7,0.1-0.8,0.3-0.8,0.9v6.5h-3.7c-0.6,0-0.7,0.2-0.7,0.7V69
	c0,0.6,0.1,0.7,0.7,0.7h3.7v11.7c0,4.8,0,10,6.7,10c3.5,0,7.3-1,7.3-2c0-0.2,0-0.2-0.1-0.4L423.1,84.8L423.1,84.8z M448.6,72.3
	c0-4.5-1.2-8.2-6.8-8.2c-2.7,0-5.3,1.1-7.2,3V54c0-0.9-0.1-1.1-0.5-1.1c-0.1,0-0.6,0.2-0.7,0.2L429,54c-0.6,0.2-1,0.2-1,0.9v34.9
	c0,0.6,0.1,0.7,0.7,0.7h5.1c0.6,0,0.7-0.2,0.7-0.7V71.6c1.1-1.3,2.7-2,4.4-2.2c2.6,0,2.9,2.4,2.9,4.4v16c0,0.6,0.1,0.7,0.7,0.7h5.1
	c0.6,0,0.7-0.2,0.7-0.7L448.6,72.3L448.6,72.3z M464.4,65.7c0-0.6-0.1-0.7-0.7-0.7h-9.9c-0.6,0-0.7,0.2-0.7,0.7V69
	c0,0.6,0.1,0.7,0.7,0.7h4v20.1c0,0.6,0.1,0.7,0.7,0.7h5.1c0.6,0,0.7-0.2,0.7-0.7V65.7L464.4,65.7z M465.3,57.2
	c0-2.4-1.9-4.3-4.3-4.3c-2.4,0-4.3,1.9-4.3,4.3c0,2.4,1.9,4.3,4.3,4.3S465.3,59.6,465.3,57.2C465.3,57.3,465.3,57.2,465.3,57.2z
	 M490.2,84.7c-0.1-0.2-0.3-0.4-0.6-0.4c-0.7,0-2.9,1.7-6.6,1.7c-4.9,0-5.7-3.6-5.7-6.5h14c1,0,1.2-0.3,1.2-1.3
	c0-6.3-1.6-14.2-10.4-14.2c-7,0-11.4,5.7-11.4,14c0,9.6,4.8,13.5,11.6,13.5c4.1,0,9.3-1.7,9.3-3.1c0-0.2-0.1-0.4-0.2-0.6L490.2,84.7
	L490.2,84.7z M477.3,74.7c0.2-1.5,0.4-5.8,4.4-5.8c3.6,0,3.7,3.7,3.7,5.8H477.3z M36.1,103.7c-0.1-1.8-0.3-2.1-1.4-2.1h-6.3
	c-1.2,0-1.2,0.1-1.6,1.1l-5.6,16.6c-1,2.6-1.7,5.2-2.1,7.9H19c-0.5-2.7-1.1-5.3-2-7.9l-5.4-16.6c-0.3-1-0.4-1.1-1.4-1.1H3.8
	c-1.1,0-1.4,0.2-1.4,1.4l-1.8,42.4c-0.1,1.2,0.3,1.4,1.4,1.4h4.8c1.1,0,1.3-0.2,1.4-1.4L8.9,123c0.1-2.4,0.1-8.2,0.1-10.6h0.1
	c0.4,2.4,1.6,8,2.3,10.4l3.8,12.9c0.3,0.9,0.3,1.1,1.5,1.1h4.1c1.1,0,1.2-0.2,1.5-1.1l4-12.9c0.7-2.4,1.9-8,2.3-10.4h0.1
	c0,2.4,0.1,8.2,0.1,10.6l0.5,22.4c0,1.2,0.3,1.4,1.4,1.4h5.8c1.1,0,1.4-0.2,1.4-1.4L36.1,103.7L36.1,103.7z M71.1,145.6
	c0.3-0.1,0.6-0.3,0.6-0.6c0-1.3-1.7-2.2-1.7-8.6v-12.8c0-6.9-3.1-10.6-11.3-10.6c-5.1,0-11.6,1.6-11.6,3.1c0,0.3,0.1,0.5,0.2,0.8
	l1.3,4c0.1,0.3,0.3,0.7,0.7,0.7c0.9,0,4.5-2,8.2-2c4.2,0,4.7,1.9,4.7,4.9v2c-5.2,0-17.2,0-17.2,11.1c0,6.2,3.8,10.2,9.9,10.2
	c3.3,0,6.5-1.4,8.6-4c0.3,1.6,1.3,4,1.9,4c0.3-0.1,0.6-0.1,0.9-0.3l5-2L71.1,145.6z M62.1,139.3c-1.3,1.5-3.1,2.4-5,2.5
	c-2.4,0-4.3-1.9-4.4-4.2c0-0.1,0-0.2,0-0.3c0-5.8,7.7-5.3,9.3-5.3L62.1,139.3L62.1,139.3z M91.9,140.1c0-0.2-0.3-0.4-0.5-0.4
	c-0.8,0.3-1.7,0.5-2.6,0.6c-1.8,0-1.8-1.9-1.8-4v-36c0-1.1-0.1-1.4-0.7-1.4c-0.1,0-0.7,0.2-0.9,0.2l-5.5,1.1
	c-0.8,0.2-1.2,0.2-1.2,1.2v33.7c0,6.1,0,12.7,8.1,12.7c3.2,0,6.7-0.9,6.7-1.9c0-0.2-0.1-0.2-0.1-0.5L91.9,140.1L91.9,140.1z
	 M116.7,139.5c0-0.2-0.3-0.4-0.5-0.4c-0.9,0-2.6,1.2-5.2,1.2c-2.2,0-2.2-1.9-2.2-4v-16h6.5c0.8,0,1-0.1,1.2-1l0.9-3.9
	c0-0.2,0.1-0.4,0.1-0.5c0-0.7-0.5-0.7-1.1-0.7h-7.5v-9.3c0-0.8-0.1-1.1-0.7-1.1c-0.4,0-0.7,0.1-0.9,0.1l-5.8,0.8
	c-0.9,0.1-1.1,0.3-1.1,1.2v8.3h-4.7c-0.8,0-0.9,0.2-0.9,0.9v4.3c0,0.7,0.1,0.9,0.9,0.9h4.7v14.8c0,6.1,0,12.7,8.5,12.7
	c4.5,0,9.3-1.2,9.3-2.5c0-0.2-0.1-0.2-0.1-0.5L116.7,139.5L116.7,139.5z M145.7,139.3c-0.1-0.3-0.4-0.5-0.7-0.5
	c-0.9,0-3.6,2.2-8.4,2.2c-6.2,0-7.3-4.6-7.3-8.2h17.8c1.2,0,1.5-0.4,1.5-1.6c0-8-2-18-13.2-18c-8.8,0-14.4,7.3-14.4,17.7
	c0,12.1,6.1,17.1,14.8,17.1c5.2,0,11.8-2.2,11.8-3.9c0-0.3-0.1-0.5-0.2-0.7L145.7,139.3L145.7,139.3z M129.3,126.5
	c0.2-1.8,0.5-7.4,5.6-7.4c4.6,0,4.8,4.7,4.8,7.4H129.3z M199.6,105.4c0.2-0.3,0.3-0.6,0.3-1c0-1.1-6.5-4-12.7-4
	c-7.7,0-14.5,4-14.5,13.5c0,5.5,2.2,8.1,5.7,10.2c6.7,4.1,13.5,4.7,13.5,10.6c0,4.1-2.2,6.1-5.9,6.1c-5.7,0-10.6-2.9-11-2.9
	c-0.4,0.1-0.6,0.3-0.7,0.7l-1.5,4.4c-0.1,0.3-0.3,0.7-0.3,1.1c0,1.1,7.1,4,13.8,4c8.3,0,14.3-5.5,14.3-13.9c0.1-4.4-2.1-8.5-5.7-11
	c-5.8-4.3-13.5-5.2-13.5-10.2c0-4,3.2-5.2,6.2-5.2c4.8,0,8.8,2.9,9.2,2.9s0.5-0.3,0.7-0.7L199.6,105.4L199.6,105.4z M219.6,141.3
	c-4.6,0-5.4-4.7-5.4-10.8c0-6.1,0.9-10.8,5.4-10.8s5.4,4.7,5.4,10.8C225,136.6,224.2,141.3,219.6,141.3L219.6,141.3z M233.9,130.4
	c0-10.6-5.5-17.4-14.3-17.4s-14.3,6.8-14.3,17.4s5.4,17.4,14.3,17.4S233.9,141.1,233.9,130.4z M267.6,122.7c0-8-5-9.6-8.6-9.6
	c-5.2,0-8.2,2.8-10.1,4.6c-0.7-3.1-1.2-4.6-2.1-4.6c-0.3,0-0.7,0.1-1,0.2l-5,1.7c-0.5,0.1-0.7,0.4-0.7,0.7c0,1.5,1.2,1,1.2,10.3
	v19.9c0,0.7,0.1,0.9,0.9,0.9h6.5c0.8,0,0.9-0.2,0.9-0.9v-23.2c0.9-0.8,3-2.7,5.8-2.7c3.4,0,3.7,3,3.7,5.5v20.3
	c0,0.7,0.1,0.9,0.9,0.9h6.5c0.8,0,0.9-0.2,0.9-0.9L267.6,122.7L267.6,122.7z M303,122.7c0-8-5-9.6-8.6-9.6c-5.2,0-8.2,2.8-10.1,4.6
	c-0.7-3.1-1.2-4.6-2.1-4.6c-0.3,0-0.7,0.1-1,0.2l-5,1.7c-0.5,0.1-0.7,0.4-0.7,0.7c0,1.5,1.2,1,1.2,10.3v19.9c0,0.7,0.1,0.9,0.9,0.9
	h6.5c0.8,0,0.9-0.2,0.9-0.9v-23.2c0.9-0.8,3-2.7,5.8-2.7c3.4,0,3.7,3,3.7,5.5v20.3c0,0.7,0.1,0.9,0.9,0.9h6.5c0.8,0,0.9-0.2,0.9-0.9
	L303,122.7L303,122.7z M335.1,139.3c-0.1-0.3-0.4-0.5-0.7-0.5c-0.9,0-3.6,2.2-8.4,2.2c-6.2,0-7.3-4.6-7.3-8.2h17.8
	c1.2,0,1.5-0.4,1.5-1.6c0-8-2-18-13.2-18c-8.8,0-14.5,7.3-14.5,17.7c0,12.1,6.1,17.1,14.8,17.1c5.2,0,11.8-2.2,11.8-3.9
	c0-0.3-0.1-0.5-0.2-0.7L335.1,139.3L335.1,139.3z M318.7,126.5c0.2-1.8,0.5-7.4,5.6-7.4c4.5,0,4.8,4.7,4.8,7.4H318.7z M387.7,123.4
	c0-5.7-1.5-10.4-7.7-10.4c-5.4,0-8.2,2.8-10.2,4.6c-0.8-2.8-3.9-4.6-6.7-4.6c-5.2,0-8.1,2.8-10.1,4.6c-0.7-3.1-1.2-4.6-2.1-4.6
	c-0.3,0-0.7,0.1-1,0.2l-5,1.7c-0.5,0.1-0.7,0.4-0.7,0.7c0,1.5,1.2,1,1.2,10.3v19.9c0,0.7,0.1,0.9,0.9,0.9h6.5c0.8,0,0.9-0.2,0.9-0.9
	v-23.2c0.9-0.8,3-2.7,5.8-2.7c2.5,0,2.8,3,2.8,5.5v20.3c0,0.7,0.1,0.9,0.9,0.9h6.5c0.8,0,0.9-0.2,0.9-0.9v-23.2
	c0.9-0.8,3-2.7,5.8-2.7c2.5,0,2.8,3,2.8,5.5v20.3c0,0.7,0.1,0.9,0.9,0.9h6.5c0.8,0,0.9-0.2,0.9-0.9L387.7,123.4L387.7,123.4z
	 M420.6,145.6c0.3-0.1,0.6-0.3,0.6-0.6c0-1.3-1.7-2.2-1.7-8.6v-12.7c0-6.9-3.1-10.6-11.4-10.6c-5.1,0-11.6,1.6-11.6,3.1
	c0,0.3,0.1,0.5,0.2,0.8l1.3,4c0.1,0.3,0.3,0.7,0.7,0.7c0.9,0,4.5-2,8.2-2c4.2,0,4.7,1.9,4.7,4.9v2c-5.2,0-17.2,0-17.2,11.1
	c0,6.2,3.8,10.2,9.9,10.2c3.3,0,6.5-1.4,8.6-4c0.3,1.6,1.3,4,1.9,4c0.3-0.1,0.6-0.1,0.9-0.3L420.6,145.6L420.6,145.6z M411.6,139.2
	c-1.3,1.5-3.1,2.4-5,2.5c-2.4,0-4.3-1.9-4.4-4.2c0-0.1,0-0.2,0-0.3c0-5.8,7.7-5.3,9.3-5.3L411.6,139.2L411.6,139.2z M454.6,122.6
	c0-8-5-9.6-8.6-9.6c-5.2,0-8.2,2.8-10.1,4.6c-0.7-3.1-1.2-4.6-2.1-4.6c-0.3,0-0.7,0.1-1,0.2l-5,1.7c-0.5,0.1-0.7,0.4-0.7,0.7
	c0,1.5,1.2,1,1.2,10.3v19.9c0,0.7,0.1,0.9,0.9,0.9h6.5c0.8,0,0.9-0.2,0.9-0.9v-23.2c0.9-0.8,3-2.7,5.8-2.7c3.4,0,3.7,3,3.7,5.5v20.3
	c0,0.7,0.1,0.9,0.9,0.9h6.5c0.8,0,0.9-0.2,0.9-0.9L454.6,122.6L454.6,122.6z M490,122.6c0-8-5-9.6-8.6-9.6c-5.2,0-8.2,2.8-10.1,4.6
	c-0.7-3.1-1.2-4.6-2.1-4.6c-0.3,0-0.7,0.1-1,0.2l-5,1.7c-0.5,0.1-0.7,0.4-0.7,0.7c0,1.5,1.2,1,1.2,10.3v19.9c0,0.7,0.1,0.9,0.9,0.9
	h6.5c0.8,0,0.9-0.2,0.9-0.9v-23.2c0.9-0.8,3-2.7,5.8-2.7c3.4,0,3.7,3,3.7,5.5v20.3c0,0.7,0.1,0.9,0.9,0.9h6.5c0.8,0,0.9-0.2,0.9-0.9
	L490,122.6z"/>
</svg>
